<?xml version="1.0" encoding="utf-8"?>
<!-- Generator: Adobe Illustrator 27.2.0, SVG Export Plug-In . SVG Version: 6.00 Build 0)  -->
<svg version="1.1" id="Capa_1" xmlns="http://www.w3.org/2000/svg" xmlns:xlink="http://www.w3.org/1999/xlink" x="0px" y="0px"
	 viewBox="0 0 451.3 385.9" style="enable-background:new 0 0 451.3 385.9;" xml:space="preserve">
<style type="text/css">
	.st0{fill:none;stroke:#27AC99;stroke-width:0.5;stroke-linecap:round;stroke-miterlimit:10;}
	.st1{fill:#E3F8FF;}
	.st2{fill:#FFF4D4;}
	.st3{fill:none;stroke:#FFF4D4;stroke-linecap:round;stroke-miterlimit:10;}
	.st4{fill:#D9FCF3;}
	.st5{fill:none;stroke:#E3F8FF;stroke-linecap:round;stroke-miterlimit:10;}
	.st6{fill:none;stroke:#D9FCF3;stroke-linecap:round;stroke-miterlimit:10;}
	.st7{fill:#010101;}
	.st8{fill:#D38254;}
	.st9{fill:#FFCF34;}
	.st10{fill:#396BB2;}
	.st11{fill:#244370;}
	.st12{fill:none;stroke:#396BB2;stroke-width:0.5;stroke-linecap:round;stroke-miterlimit:10;}
	.st13{fill:#F2B22A;}
	.st14{fill:#29497C;}
	.st15{fill:#E29867;}
	.st16{fill:#DB804D;}
	.st17{fill:#CA4F24;}
	.st18{fill:none;stroke:#010101;stroke-width:0.5;stroke-linecap:round;stroke-linejoin:round;stroke-miterlimit:10;}
	.st19{fill:none;stroke:#FFCF34;stroke-width:0.5;stroke-linecap:round;stroke-miterlimit:10;}
	.st20{fill:none;stroke:#396BB2;stroke-width:0.5;stroke-linecap:round;stroke-miterlimit:10;stroke-dasharray:2;}
	.st21{fill:none;stroke:#396BB2;stroke-width:0.5;stroke-linecap:round;stroke-miterlimit:10;stroke-dasharray:2.066,2.066;}
	.st22{fill:none;stroke:#FFF4D4;stroke-width:0.5;stroke-linecap:round;stroke-miterlimit:10;}
	.st23{fill:#BEF0FC;}
	.st24{fill:#FFFFFF;}
	.st25{fill:#53EECE;}
	.st26{fill:none;stroke:#27AC99;stroke-width:0.5;stroke-linecap:round;stroke-linejoin:round;stroke-miterlimit:10;}
	.st27{fill:#36CCB1;}
</style>
<g id="OBJECTS">
	<g>
		<line class="st0" x1="32.4" y1="372.7" x2="445.5" y2="372.7"/>
		<g>
			<polygon class="st1" points="110.7,313.1 83.7,300.7 87,329.2 			"/>
			<polygon class="st2" points="374.6,303.8 352.4,326 345.2,296.6 			"/>
			<polygon class="st3" points="400.8,263.8 440.4,283.4 436.8,240.9 			"/>
			<polygon class="st4" points="226,267.8 318.7,340 332,227.4 			"/>
			<polygon class="st5" points="125.5,119.7 63.7,107.9 84.9,164.8 			"/>
			<polygon class="st2" points="271.1,70.7 202.4,30.7 203.8,107.4 			"/>
			<polygon class="st3" points="87,208 5.8,229.1 63.9,285.6 			"/>
			<polygon class="st5" points="264.3,35.4 303.6,55.7 300.7,13.1 			"/>
			<polygon class="st6" points="358.6,83.9 372.1,97.5 376.5,79.6 			"/>
			<polygon class="st4" points="41.4,111.5 8.1,130 40,148.3 			"/>
			<polygon class="st1" points="415.8,111.5 382.5,130 414.4,148.3 			"/>
			<polygon class="st1" points="349.6,47.7 342,55.3 352,57.8 			"/>
			<polygon class="st4" points="178.3,19.3 170.7,26.9 180.8,29.4 			"/>
			<polygon class="st2" points="80.7,55.5 67.2,69.1 62.8,51.1 			"/>
			<polygon class="st1" points="97.1,34.4 104.7,42 94.6,44.4 			"/>
		</g>
		<g>
			<g>
				<g>
					<path class="st7" d="M148.3,86.3c0,0-18-5.8-25.9,14.5s-19.2,7-22.6,23.1s-16.4,9.2-14.1,23.9c0,0-1.3-6.5,6.7-9.9
						c7.9-3.3,9.7-5,9.7-5s-13.3,5.3-13.3,17.6c7.4,0,12-0.6,19.2,6.5c7.1,7.1,34,13.8,46.4,3s12.8-7.3,12.8-7.3s7.8-7.8,1-23.1
						C161,113.8,180,91.7,148.3,86.3z"/>
					<path class="st8" d="M239,209.8c0,0-27.6,3.8-45.3,1.3c-17.6-2.5-63.6-49.7-53.7-66.6c7.9-13.5,27,8.4,59.3,47l37.8,11.4
						c0,0,6.3-7.3,13-3.6c6.7,3.6,13,5.3,10.7,7.6c-2.4,2.4-10.7,0.7-10.7,0.7S246.3,209.8,239,209.8z"/>
					<path class="st1" d="M151.7,180.2c0,0-19.6-22.6-10.7-36.7c8.9-14.1,35.7,18,35.7,18S167.1,175.5,151.7,180.2z"/>
					<g>
						<path class="st9" d="M137.6,258.7c0-24.5,9.2-29.7,9.2-51s-13.7-27.4-13.7-27.4H74.5c0,0,13.7,14.4,13.7,27.4
							c0,21.3-9.2,26.5-9.2,51c0,15.7,13.7,20.2,13.7,20.2h58.6C151.3,278.9,137.6,274.4,137.6,258.7z"/>
						<polygon class="st10" points="142.8,282.2 140.5,281.8 124.2,372.8 126.7,372.8 						"/>
						<polygon class="st10" points="95.5,282.2 93.1,281.8 76.8,372.8 79.3,372.8 						"/>
						<polygon class="st10" points="130.7,282.2 133.1,281.8 149.3,372.8 146.9,372.8 						"/>
						<polygon class="st10" points="178.1,282.2 180.5,281.8 196.7,372.8 194.3,372.8 						"/>
						<rect x="92.7" y="278.9" class="st7" width="86.9" height="4.6"/>
					</g>
					<g>
						<path class="st11" d="M141.1,238.5c0,0,88.4-11.1,103.9,33.5c6.9,12.8-3.3,84.2-3.3,84.2l-10.2-2.2c0,0-14.1-46.8-4.7-70.9
							C149.5,280.1,147.3,273.5,141.1,238.5"/>
						<path class="st12" d="M206.5,263.4c0,0,21,8.3,26.1,13.4s-1.3,26.3,4,70.7"/>
						<path class="st13" d="M229.5,372.8c0,0-3.1-8.4-4.5-28.1c13.2-0.5,21.2,2.3,21.2,2.3c-0.4,3.1-1.6,8.9,3,14.8
							c3.7,4.8,6.7,4.7,9.5,5.4c2.8,0.7,5.1,2.6,5.4,5.6L229.5,372.8L229.5,372.8z"/>
						<path class="st14" d="M219.5,272c-7-20-31.5-28.4-56.5-31.5c-0.3-3-0.8-6.1-1.5-9.1c-26.7,4.5-47.7,2.4-58.3,0.9
							c-3.2,14.9-2.4,23.8,1.1,29.7c6.9,15.8,28.3,18.8,85.8,21l-29,58.4l8.4,8.6C169.6,350,226.4,284.8,219.5,272z"/>
						<path class="st12" d="M123.5,233.9c0,0-13.7,27.2,27.2,32.8c40.8,5.6,57.9,6.8,55.4,14.5s-35,55.2-35,55.2"/>
						<path class="st12" d="M138.5,233.9c0,0-1.4,3,1.5,7.6c5.8,9.2,1.1,17-7.8,19.7"/>
						<path class="st13" d="M150,349c0,0,3.7-8.1,16.3-23.2c9.8,8.8,13.7,16.4,13.7,16.4l-2.2,1.8c-4.9,4.1-7.9,12.2-4.8,18.2
							c1.2,2.3,3.8,4.2,3,7.8c-0.1,0.3-1.3,2.6-1.3,2.6C174.6,372.8,150,349,150,349z"/>
						<path class="st12" d="M102.4,236.4c0,0,14.8,2.4,33,2s26.9-3.1,26.9-3.1"/>
					</g>
					<path class="st1" d="M163.2,231.4c-0.5-1.9-1.1-3.8-1.8-5.7c-10.3-27.1,8.6-24.9,8.6-48c0-7-18-51.9-44.6-36.7
						c0,0-7.9-8.8-18.8,40.3c-3.7,16.7-8.4,35.9-7.8,51.8C109.4,234.6,136.5,235.9,163.2,231.4z"/>
					<path class="st8" d="M145,171.7c2.2,2.2,5,3.9,8.1,4.5c3.6,0.7,7.8-0.2,5.7-8.5c-2.5-10-12.4-27.6-12.4-27.6l-15.7,1.9
						C130.6,141.9,134.7,161.4,145,171.7z"/>
					<path class="st8" d="M122.6,147.6l8.1-33.7l18,16.1l-3.5,20.3C145.2,150.2,136.2,157.4,122.6,147.6z"/>
					<path class="st15" d="M146.3,90.1c0,0-18.2-2.4-18.2,22.8c0,8.1,0.9,14.5,4.4,17.4c11.8,9.8,22.8,8.2,27.7,0
						c2.3-3.9,4.4-9.4,4.4-17.4C164.6,87.6,146.3,90.1,146.3,90.1z"/>
					<g>
						<ellipse class="st16" cx="136.5" cy="121.8" rx="8.4" ry="8.4"/>
						<g>
							<path class="st16" d="M156.6,121.8c0,3.2,1.8,5.9,4.3,7.3c2.1-3.7,3.6-8.7,3.6-15.7C160.1,113.7,156.6,117.3,156.6,121.8z"/>
						</g>
						<path class="st17" d="M147.4,126.3c0,0,3.5-2,4.5,0c1-2.1,3.5,0,3.5,0s-0.8,2.3-3.6,2.6C148.3,129.2,147.4,126.3,147.4,126.3z
							"/>
						<circle class="st7" cx="144.3" cy="113.8" r="1.3"/>
						<path class="st18" d="M139.7,112.2c0,0,4.1-1.9,7.6,1.3"/>
						<path class="st7" d="M159,113.8c0,0.7,0.6,1.3,1.3,1.3s1.3-0.6,1.3-1.3s-0.6-1.3-1.3-1.3S159,113.1,159,113.8z"/>
						<path class="st18" d="M163.3,112.2c0,0-4.1-1.9-7.6,1.3"/>
						<path class="st18" d="M155.7,109.2c0,0,4.1-1.9,7.6,1.3"/>
						<path class="st18" d="M147.3,109.2c0,0-4.1-1.9-7.6,1.3"/>
						<path class="st18" d="M145.9,125.6c0,0,5.3,3.1,10.9,0.3"/>
						<circle class="st19" cx="143.5" cy="112.9" r="6.1"/>
						<circle class="st19" cx="159.5" cy="112.9" r="6.1"/>
						<path class="st16" d="M155.2,120.2c-1.6-4.1-2.8-7.3-2.8-7.3v10.7C152.3,123.5,156.8,124.2,155.2,120.2z"/>
						<path class="st18" d="M152.3,112.9c0,0,3.2,7.4,3.2,8.9s-1.7,1.7-3.2,1.7"/>
						<line class="st19" x1="149.6" y1="112.9" x2="153.4" y2="112.9"/>
						<line class="st19" x1="134.3" y1="113" x2="137.3" y2="113"/>
					</g>
					<path class="st15" d="M208.9,203.1c0,0-29.9,10.6-47.5,8.1s-52.9-48-42.9-64.9c7.9-13.5,16.3,6.7,48.6,45.3l40,4.7
						c0,0,6.3-7.3,13-3.6c6.7,3.6,13,5.3,10.7,7.6c-2.4,2.4-10.7,0.7-10.7,0.7S216.2,203.1,208.9,203.1z"/>
					<path class="st1" d="M122.6,180.2c0,0-13.8-26.4-2-38.2c13.8-13.8,30.7,25.6,30.7,25.6S138.6,179.2,122.6,180.2z"/>
					<path class="st7" d="M131.2,94.2c0,0-10.2-2.8-6.2-11.6c4-8.8,19-9.3,19.8,3.5C135.9,87.5,131.2,94.2,131.2,94.2z"/>
					<path class="st7" d="M126.6,109.3c0,0,14.1,3.8,20.9-11.9c-1.4,6.9-7.6,11.4-7.6,11.4s7.8-0.9,12.5-9.9c1.5,6.3-3.6,10-3.6,10
						s12.8,1.4,14.1-6.6c2.2,3.4,0,8.1,0,8.1s4.7-1.9,2.8-10.1c-1.9-8.2-12.1-13.9-25.8-12.2S126.6,109.3,126.6,109.3z"/>
					<path class="st7" d="M137.2,106.4c0,0-5.8,5.2-1.6,16.8c4.1,11.6,13.2,16.7,8.2,30.5c-6.5-10-17.3-19.3-25.4-10.1
						C109.7,153.5,120.2,102.8,137.2,106.4z"/>
					<path class="st20" d="M122.2,178.6c0,0,19.4-3.5,28.2-13.5"/>
					<path class="st20" d="M167.7,168.4c0,0,5.1-4.2,7.7-8.4"/>
					<path class="st12" d="M115.9,156.5c0,0,2.4,13.7,6.9,24.2c0,0,1,0.1,3-0.3"/>
					<path class="st12" d="M153.9,145.1c0,0,10.7,13.8,14.1,24.9"/>
					<g>
						<g>
							<path class="st12" d="M99.4,230.7c0,0,0.3,0,1,0.1"/>
							<path class="st21" d="M102.5,230.9c8.4,0.6,32.8,1.8,56.7-1.7"/>
							<path class="st12" d="M160.2,229c0.3,0,0.7-0.1,1-0.2"/>
						</g>
					</g>
					<line class="st22" x1="152.2" y1="348.4" x2="174.8" y2="370.1"/>
					<line class="st22" x1="230.2" y1="370.9" x2="261.9" y2="370.9"/>
				</g>
				<g>
					<g>
						<g>
							<rect x="32.2" y="212.6" class="st10" width="3.9" height="160.2"/>
							<rect x="352.7" y="212.6" class="st10" width="3.9" height="160.2"/>
						</g>
						<rect x="32.2" y="211" class="st7" width="324.4" height="4.9"/>
					</g>
				</g>
				<g>
					<path class="st23" d="M283.4,207.5h-106c-0.9,0-1.7,0.8-1.7,1.7l0,0c0,0.9,0.8,1.7,1.7,1.7h106c0.9,0,1.7-0.8,1.7-1.7l0,0
						C285.1,208.3,284.3,207.5,283.4,207.5z"/>
					<path class="st23" d="M296.2,155.6h-81.5c-3.3,0-6.6,2.7-7.3,6l-9.3,43.3c-0.7,3.3,1.4,6,4.7,6h81.5c3.3,0,6.6-2.7,7.3-6
						l9.3-43.3C301.7,158.3,299.6,155.6,296.2,155.6z"/>
					<g>
						<path class="st24" d="M254.6,165.7c1.7,0.9,2.9,2.7,2.9,4.8c0,3-2.4,5.4-5.4,5.4c-2,0-3.7-1.1-4.7-2.7
							c0.3,3.5,3.2,6.2,6.8,6.2c3.8,0,6.8-3.1,6.8-6.8C261,168.8,258.2,165.9,254.6,165.7z"/>
					</g>
				</g>
				<g>
					<path class="st25" d="M322.1,193.9L322.1,193.9c-5.8,0-10.6-4.8-10.6-10.6v-13.5c0-5.8,4.8-10.6,10.6-10.6l0,0
						c5.8,0,10.6,4.8,10.6,10.6v13.4C332.8,189.1,328,193.9,322.1,193.9z"/>
					<g>
						<line class="st26" x1="322.8" y1="158.8" x2="321.5" y2="160.1"/>
						<line class="st26" x1="322.8" y1="175.8" x2="321.5" y2="177"/>
						<line class="st26" x1="321.5" y1="167.3" x2="322.8" y2="168.6"/>
					</g>
					<g>
						<line class="st26" x1="328.5" y1="180" x2="329.8" y2="178.7"/>
						<line class="st26" x1="328.5" y1="163" x2="329.8" y2="161.8"/>
						<line class="st26" x1="329.8" y1="171.5" x2="328.5" y2="170.2"/>
					</g>
					<g>
						<line class="st26" x1="314.5" y1="161.8" x2="315.8" y2="163"/>
						<line class="st26" x1="314.5" y1="178.7" x2="315.8" y2="180"/>
						<line class="st26" x1="315.8" y1="170.2" x2="314.5" y2="171.5"/>
					</g>
					<g>
						<path class="st14" d="M306.7,189.3h30.9c0.2-2.3,0.3-4.3,0.3-5.7h-31.4C306.4,185,306.5,187,306.7,189.3z"/>
						<path class="st14" d="M308.4,197.5h27.5c0.6-1.9,1.1-3.9,1.4-5.7h-30.2C307.3,193.6,307.8,195.6,308.4,197.5z"/>
						<path class="st14" d="M313.3,205.6L313.3,205.6l17.6,0.1v-0.1c1.7-1.5,3-3.5,4-5.7h-25.5C310.4,202.1,311.6,204.1,313.3,205.6
							z"/>
						<rect x="313.3" y="208.2" class="st14" width="17.6" height="3.1"/>
						<path class="st1" d="M306.5,181c0,0-0.1,1-0.1,2.5h31.4c0-1.5-0.1-2.5-0.1-2.5H306.5z"/>
						<path class="st1" d="M307,191.7h30.2c0.1-0.9,0.2-1.7,0.3-2.5h-30.9C306.8,190.1,306.9,190.9,307,191.7z"/>
						<path class="st1" d="M309.4,200h25.5c0.4-0.8,0.7-1.6,1-2.5h-27.5C308.7,198.3,309,199.1,309.4,200z"/>
						<rect x="313.3" y="205.7" class="st1" width="17.6" height="2.5"/>
					</g>
				</g>
				<g>
					<path class="st10" d="M260.4,104c-9.8,2.1-16,11.8-13.9,21.6c1.1,5,4.2,9.1,8.2,11.6l0.3,9.9l7-7.4c2,0.2,4,0.2,6.1-0.3
						c9.8-2.1,16-11.8,13.9-21.6C279.9,108.1,270.2,101.9,260.4,104z"/>
					<g>
						<path class="st24" d="M253.7,122.4v-1l5.3-3.6v1.3l-4.2,2.8v0.1l4.2,2.8v1.3L253.7,122.4z"/>
						<path class="st24" d="M267.6,116.6h1.2l-7.1,12.3h-1.2L267.6,116.6z"/>
						<path class="st24" d="M270.4,124.7l4.2-2.8v-0.1l-4.2-2.8v-1.3l5.3,3.6v1l-5.3,3.6V124.7z"/>
					</g>
				</g>
			</g>
			<g>
				<g>
					<path class="st27" d="M403.7,210.7c-10.8-5.1-24.1-2.1-29,26.4s7.7,32.9,2.1,49.5s-3.9,36.3-3.9,36.3h13.9
						c31.7-39.4,0.4-45.3,16.9-65.4C420.1,237.5,414.5,215.8,403.7,210.7z"/>
					<path class="st0" d="M403.7,210.7c0,0-14.5,12.1-14.5,42.3s9.9,37.2-9.2,67"/>
					<path class="st0" d="M395.3,222.7c0,0-5.1-5.1-6.1-12.8"/>
					<path class="st0" d="M391.9,232.8c0,0,7.9,3.6,22.2,0"/>
					<path class="st0" d="M389.4,247.5c0,0-9-4.9-14.2-15.5"/>
					<path class="st0" d="M389.4,259.4c0,0,6.3-0.1,16.6-5"/>
					<path class="st0" d="M391,276.3c0,0-4.2-4.4-8.7-8.9"/>
					<path class="st0" d="M391.9,286.7c0,0,4.2,0.2,9-4.3"/>
					<path class="st0" d="M389.9,300c0,0-3-2.6-5-7"/>
					<path class="st0" d="M386.7,308.3c0,0,5.7,1.5,11.4-2.7"/>
					<path class="st25" d="M362.4,323.2c0,0-12-13.2-6.4-28.4s-7.6-19.4-10.4-31c-2.8-11.5,4-20.5,6-31.9s-14-20.2-14-36.5
						s27.7-25.9,39.3-3s-4.4,44.6,3.6,58s12,33.5,5.6,49.5s-3.2,23.2-3.2,23.2L362.4,323.2L362.4,323.2z"/>
					<path class="st0" d="M351,179.7c0,0,13.9,12.4,13.9,36.4s-10.9,36.8,4.9,56.2c15.8,19.4-9.1,28.3,2.9,54.7"/>
					<path class="st0" d="M361.8,197.9c0,0-8.2,3.5-24.3-1.6"/>
					<path class="st0" d="M364.8,212.6c0,0,11.1,0.1,15-12.3"/>
					<path class="st0" d="M363,235c0,0-7,0.1-11.3-5.1"/>
					<path class="st0" d="M361.3,248.4c0,0,8.5,2.7,17-4.3"/>
					<path class="st0" d="M366.5,267.8c0,0-9.2,3.4-20.4-2.1"/>
					<path class="st0" d="M374.3,280.1c0,0,10.1-5,13.3-11.8"/>
					<path class="st0" d="M371.1,301.6c0,0-6.9,1.5-15.2-6.8"/>
					<path class="st0" d="M383.2,308.8c0,0-4.3,5-13.9,5"/>
				</g>
				<g>
					<path class="st9" d="M405.7,315.8h-59.8c0,0-0.2,2.8-0.1,7.1h60C405.9,318.6,405.7,315.8,405.7,315.8z"/>
					<path class="st9" d="M347,337.1c0.4,2.4,0.9,4.8,1.6,7.2c0.7,2.4,1.5,4.8,2.5,7.1c1.1,2.6,2.5,5,4.1,7.2
						c1.9,2.5,4.1,4.7,6.7,6.4v0.6h27.7V365c2.6-1.7,4.9-3.9,6.7-6.4c1.6-2.2,3-4.6,4.1-7.2c1-2.3,1.8-4.7,2.5-7.1s1.2-4.8,1.6-7.2
						c0.4-2.4,0.7-4.8,0.9-7.1h-59.3C346.3,332.3,346.6,334.7,347,337.1z"/>
					<path class="st14" d="M346.1,330.1h59.3c0.2-2.6,0.3-5.1,0.4-7.2h-60C345.8,325,345.9,327.4,346.1,330.1z"/>
					<rect x="361.9" y="365.6" class="st14" width="27.7" height="7.2"/>
				</g>
			</g>
		</g>
	</g>
</g>
</svg>
